# xmcd
#
# Track frame offsets: 
#        182
#        22020
#        46060
#        67782
#        91667
#        109647
#        127650
#        151607
#        180537
#        212210
#
# Disc length: 3269 seconds
#
# Revision: 4
# Processed by: cddbd v1.5.2PL0 Copyright (c) Steve Scherf et al.
# Submitted via: ExactAudioCopy v0.99pb4
#
DISCID=6b0cc30a
DTITLE=Bo Diddley - A Man Amongst Men
DYEAR=1996
DGENRE=Blues
TTITLE0=Bo Diddley Is Crazy
TTITLE1=Can I Walk You Home
TTITLE2=Hey Baby
TTITLE3=I Can't Stand It
TTITLE4=He's Got A Key
TTITLE5=A Man Amongst Men
TTITLE6=Coatimundi
TTITLE7=That Mule
TTITLE8=Kids Don't Do It
TTITLE9=Oops! Bo Diddley
EXTD=
EXTT0=
EXTT1=
EXTT2=
EXTT3=
EXTT4=
EXTT5=
EXTT6=
EXTT7=
EXTT8=
EXTT9=
PLAYORDER=
